<?xml version="1.0" encoding="UTF-8" standalone="no"?>
<!-- Created with Inkscape (http://www.inkscape.org/) -->

<svg
   xmlns:dc="http://purl.org/dc/elements/1.1/"
   xmlns:cc="http://creativecommons.org/ns#"
   xmlns:rdf="http://www.w3.org/1999/02/22-rdf-syntax-ns#"
   xmlns:svg="http://www.w3.org/2000/svg"
   xmlns="http://www.w3.org/2000/svg"
   xmlns:sodipodi="http://sodipodi.sourceforge.net/DTD/sodipodi-0.dtd"
   xmlns:inkscape="http://www.inkscape.org/namespaces/inkscape"
   id="svg2985"
   version="1.1"
   inkscape:version="0.48.2 r9819"
   width="1000"
   height="794.30072"
   xml:space="preserve"
   sodipodi:docname="Suf.svg"><metadata
     id="metadata2991"><rdf:RDF><cc:Work
         rdf:about=""><dc:format>image/svg+xml</dc:format><dc:type
           rdf:resource="http://purl.org/dc/dcmitype/StillImage" /><dc:title></dc:title></cc:Work></rdf:RDF></metadata><defs
     id="defs2989"><clipPath
       clipPathUnits="userSpaceOnUse"
       id="clipPath2999"><path
         d="m 0,841.945 595,0 0,-841.89 -595,0 0,841.89 z"
         id="path3001"
         inkscape:connector-curvature="0" /></clipPath><clipPath
       clipPathUnits="userSpaceOnUse"
       id="clipPath3005"><path
         d="m 0,842.04 595.2,0 L 595.2,0 0,0 0,842.04 z"
         id="path3007"
         inkscape:connector-curvature="0" /></clipPath><clipPath
       clipPathUnits="userSpaceOnUse"
       id="clipPath3129"><path
         d="m 0,841.945 595,0 0,-841.89 -595,0 0,841.89 z"
         id="path3131"
         inkscape:connector-curvature="0" /></clipPath><clipPath
       clipPathUnits="userSpaceOnUse"
       id="clipPath3135"><path
         d="m 0,842.04 595.2,0 L 595.2,0 0,0 0,842.04 z"
         id="path3137"
         inkscape:connector-curvature="0" /></clipPath><clipPath
       clipPathUnits="userSpaceOnUse"
       id="clipPath3377"><path
         inkscape:connector-curvature="0"
         d="m 741.337,520.09 83.339,0 0,58.677 -83.339,0 0,-58.677 z"
         id="path3379" /></clipPath></defs><sodipodi:namedview
     pagecolor="#ffffff"
     bordercolor="#666666"
     borderopacity="1"
     objecttolerance="10"
     gridtolerance="10"
     guidetolerance="10"
     inkscape:pageopacity="0"
     inkscape:pageshadow="2"
     inkscape:window-width="1920"
     inkscape:window-height="1028"
     id="namedview2987"
     showgrid="false"
     fit-margin-left="0.5"
     fit-margin-bottom="0.5"
     fit-margin-top="0.5"
     fit-margin-right="0.5"
     inkscape:zoom="1.2684253"
     inkscape:cx="618.38275"
     inkscape:cy="110.12328"
     inkscape:window-x="-8"
     inkscape:window-y="-8"
     inkscape:window-maximized="1"
     inkscape:current-layer="g3121" /><g
     id="g2993"
     inkscape:groupmode="layer"
     inkscape:label="HTS-Clare-Haverhill_12pp"
     transform="matrix(1.25,0,0,-1.25,-788.55787,1768.5711)"><g
       id="g3121"
       transform="translate(455.985,791.344)"><g
         id="g3373"
         transform="matrix(11.747534,0,0,11.747534,-8661.8329,-6175.9721)"
         style="fill:#fff;fill-opacity:1"><g
           id="g3375"
           clip-path="url(#clipPath3377)"
           style="fill:#fff;fill-opacity:1"><g
             id="g3381"
             transform="translate(760.0312,525.0704)"
             style="fill:#fff;fill-opacity:1"><path
               d="M 0,0 0.054,0.357 0.03,0.381 C -0.026,0.336 -0.097,0.284 -0.181,0.224 -0.262,0.167 -0.354,0.113 -0.459,0.061 -0.56,0.012 -0.673,-0.03 -0.798,-0.066 c -0.12,-0.037 -0.253,-0.055 -0.398,-0.055 -0.238,0 -0.459,0.038 -0.665,0.115 -0.201,0.076 -0.379,0.193 -0.532,0.35 -0.149,0.162 -0.266,0.363 -0.35,0.605 -0.085,0.245 -0.127,0.535 -0.127,0.87 0,0.334 0.042,0.622 0.127,0.864 0.084,0.245 0.201,0.447 0.35,0.604 0.153,0.161 0.331,0.28 0.532,0.356 0.206,0.077 0.427,0.115 0.665,0.115 0.145,0 0.278,-0.02 0.398,-0.06 0.121,-0.037 0.23,-0.083 0.327,-0.139 0.096,-0.057 0.181,-0.115 0.254,-0.176 0.072,-0.06 0.128,-0.114 0.169,-0.163 l 0.036,0.012 C 0,3.297 0.016,3.378 0.036,3.474 0.056,3.571 0.083,3.647 0.115,3.704 -0.054,3.78 -0.25,3.845 -0.471,3.897 -0.689,3.953 -0.93,3.982 -1.196,3.982 -1.531,3.982 -1.837,3.933 -2.115,3.837 -2.393,3.74 -2.632,3.599 -2.834,3.414 -3.031,3.228 -3.186,3.001 -3.299,2.731 -3.408,2.465 -3.462,2.161 -3.462,1.819 c 0,-0.343 0.054,-0.649 0.163,-0.919 0.113,-0.265 0.266,-0.491 0.459,-0.676 0.198,-0.186 0.431,-0.325 0.701,-0.417 0.27,-0.089 0.564,-0.133 0.882,-0.133 0.149,0 0.292,0.012 0.429,0.036 0.137,0.024 0.26,0.051 0.369,0.079 0.113,0.032 0.207,0.066 0.284,0.102 C -0.095,-0.068 -0.036,-0.032 0,0"
               style="fill:#fff;fill-opacity:1;fill-rule:nonzero;stroke:none"
               id="path3383"
               inkscape:connector-curvature="0" /></g><g
             id="g3385"
             transform="translate(764.9553,526.889)"
             style="fill:#fff;fill-opacity:1"><path
               d="m 0,0 c 0,-0.334 -0.042,-0.624 -0.127,-0.87 -0.084,-0.242 -0.203,-0.443 -0.356,-0.604 -0.149,-0.157 -0.327,-0.274 -0.532,-0.351 -0.201,-0.076 -0.421,-0.114 -0.659,-0.114 -0.233,0 -0.453,0.038 -0.658,0.114 -0.201,0.077 -0.379,0.194 -0.532,0.351 -0.149,0.161 -0.266,0.362 -0.35,0.604 -0.085,0.246 -0.127,0.536 -0.127,0.87 0,0.334 0.042,0.622 0.127,0.864 0.084,0.246 0.201,0.447 0.35,0.604 0.153,0.161 0.331,0.28 0.532,0.357 0.205,0.076 0.425,0.114 0.658,0.114 0.238,0 0.458,-0.038 0.659,-0.114 C -0.81,1.748 -0.632,1.629 -0.483,1.468 -0.33,1.311 -0.211,1.11 -0.127,0.864 -0.042,0.622 0,0.334 0,0 m -3.933,0 c 0,-0.342 0.054,-0.648 0.163,-0.918 0.113,-0.266 0.268,-0.492 0.465,-0.677 0.201,-0.185 0.441,-0.324 0.719,-0.417 0.278,-0.089 0.582,-0.133 0.912,-0.133 0.335,0 0.641,0.044 0.919,0.133 0.278,0.093 0.515,0.232 0.713,0.417 0.201,0.185 0.356,0.411 0.465,0.677 0.113,0.27 0.169,0.576 0.169,0.918 0,0.342 -0.056,0.646 -0.169,0.912 C 0.314,1.182 0.159,1.41 -0.042,1.595 -0.24,1.78 -0.477,1.921 -0.755,2.018 -1.033,2.115 -1.339,2.163 -1.674,2.163 -2.004,2.163 -2.308,2.115 -2.586,2.018 -2.864,1.921 -3.104,1.78 -3.305,1.595 -3.502,1.41 -3.657,1.182 -3.77,0.912 -3.879,0.646 -3.933,0.342 -3.933,0"
               style="fill:#fff;fill-opacity:1;fill-rule:evenodd;stroke:none"
               id="path3387"
               inkscape:connector-curvature="0" /></g><g
             id="g3389"
             transform="translate(769.9641,527.0097)"
             style="fill:#fff;fill-opacity:1"><path
               d="M 0,0 C 0,-0.125 -0.002,-0.262 -0.006,-0.411 -0.01,-0.56 -0.024,-0.709 -0.048,-0.858 -0.072,-1.007 -0.113,-1.15 -0.169,-1.287 -0.222,-1.424 -0.296,-1.545 -0.393,-1.649 -0.489,-1.754 -0.614,-1.839 -0.767,-1.903 -0.916,-1.967 -1.102,-2 -1.323,-2 c -0.226,0 -0.415,0.026 -0.568,0.079 -0.153,0.056 -0.28,0.131 -0.381,0.223 -0.1,0.097 -0.179,0.208 -0.235,0.333 -0.053,0.128 -0.091,0.261 -0.115,0.398 -0.024,0.141 -0.038,0.284 -0.042,0.43 -0.004,0.148 -0.007,0.291 -0.007,0.428 0,0.226 0.003,0.443 0.007,0.653 0.004,0.209 0.01,0.405 0.018,0.586 0.008,0.181 0.016,0.342 0.024,0.483 0.008,0.145 0.016,0.262 0.024,0.351 C -2.642,1.956 -2.687,1.948 -2.731,1.94 -2.771,1.936 -2.813,1.934 -2.858,1.934 c -0.048,0 -0.101,0.002 -0.157,0.006 -0.056,0.008 -0.109,0.016 -0.157,0.024 0.008,-0.181 0.016,-0.403 0.024,-0.665 0.008,-0.262 0.012,-0.562 0.012,-0.9 0,-0.153 -0.006,-0.304 -0.018,-0.453 -0.008,-0.145 -0.012,-0.312 -0.012,-0.502 0,-0.592 0.137,-1.025 0.411,-1.299 0.274,-0.274 0.713,-0.411 1.317,-0.411 0.274,0 0.516,0.039 0.725,0.115 0.214,0.077 0.393,0.19 0.538,0.339 0.145,0.148 0.256,0.33 0.332,0.543 0.081,0.214 0.123,0.456 0.127,0.725 0.004,0.222 0.01,0.45 0.018,0.683 C 0.31,0.377 0.318,0.606 0.326,0.828 0.334,1.054 0.344,1.263 0.357,1.456 0.369,1.654 0.381,1.823 0.393,1.964 0.324,1.943 0.264,1.934 0.211,1.934 0.171,1.934 0.131,1.936 0.091,1.94 0.05,1.948 0.008,1.956 -0.036,1.964 -0.02,1.847 -0.01,1.634 -0.006,1.323 -0.002,1.013 0,0.572 0,0"
               style="fill:#fff;fill-opacity:1;fill-rule:nonzero;stroke:none"
               id="path3391"
               inkscape:connector-curvature="0" /></g><g
             id="g3393"
             transform="translate(775.3416,524.7441)"
             style="fill:#fff;fill-opacity:1"><path
               d="m 0,0 0.084,0 0,0.199 c 0,0.097 -0.002,0.21 -0.006,0.339 0,0.133 -0.002,0.274 -0.006,0.423 0,0.153 -0.002,0.304 -0.006,0.453 l 0,0.429 0,0.362 c 0,0.117 0.004,0.272 0.012,0.465 0.009,0.194 0.017,0.391 0.025,0.593 0.012,0.201 0.022,0.39 0.03,0.568 0.012,0.177 0.022,0.31 0.03,0.398 -0.081,-0.02 -0.145,-0.03 -0.193,-0.03 -0.057,0 -0.125,0.01 -0.206,0.03 0.02,-0.354 0.033,-0.733 0.037,-1.136 0.008,-0.398 0.012,-0.809 0.012,-1.232 l 0,-0.822 C -0.373,1.225 -0.59,1.448 -0.84,1.71 c -0.246,0.266 -0.507,0.546 -0.785,0.84 -0.274,0.298 -0.552,0.598 -0.834,0.9 -0.278,0.306 -0.54,0.592 -0.786,0.858 l -0.096,0 C -3.333,4.171 -3.329,3.964 -3.329,3.686 -3.325,3.408 -3.323,3.075 -3.323,2.689 -3.323,2.556 -3.325,2.405 -3.329,2.236 -3.333,2.066 -3.339,1.893 -3.347,1.716 -3.351,1.539 -3.359,1.362 -3.371,1.184 -3.38,1.007 -3.388,0.842 -3.396,0.689 -3.404,0.54 -3.414,0.411 -3.426,0.302 -3.434,0.193 -3.442,0.119 -3.45,0.079 c 0.068,0.008 0.143,0.012 0.224,0.012 0.076,0 0.147,-0.004 0.211,-0.012 -0.004,0.032 -0.008,0.092 -0.012,0.181 -0.004,0.092 -0.008,0.199 -0.012,0.32 -0.004,0.121 -0.008,0.252 -0.012,0.393 -0.004,0.141 -0.008,0.28 -0.012,0.417 0,0.136 -0.002,0.267 -0.006,0.393 l 0,0.314 c 0,0.326 0.002,0.584 0.006,0.773 0.004,0.189 0.008,0.34 0.012,0.453 C -2.528,2.767 -2.004,2.207 -1.48,1.643 -0.957,1.083 -0.463,0.536 0,0"
               style="fill:#fff;fill-opacity:1;fill-rule:nonzero;stroke:none"
               id="path3395"
               inkscape:connector-curvature="0" /></g><g
             id="g3397"
             transform="translate(777.9033,527.4086)"
             style="fill:#fff;fill-opacity:1"><path
               d="m 0,0 0,-1.039 c 0,-0.266 -0.006,-0.528 -0.018,-0.786 -0.008,-0.257 -0.018,-0.511 -0.03,-0.761 0.092,0.008 0.191,0.012 0.296,0.012 0.104,0 0.203,-0.004 0.296,-0.012 -0.012,0.25 -0.024,0.504 -0.036,0.761 -0.009,0.258 -0.013,0.52 -0.013,0.786 l 0,1.039 c 0,0.419 0.006,0.836 0.019,1.251 0.104,0 0.213,-0.002 0.326,-0.006 0.117,0 0.231,-0.004 0.344,-0.012 C 1.301,1.229 1.412,1.222 1.517,1.215 1.625,1.206 1.722,1.196 1.807,1.184 1.786,1.257 1.776,1.319 1.776,1.372 1.776,1.42 1.786,1.484 1.807,1.565 1.541,1.557 1.281,1.549 1.027,1.541 0.773,1.537 0.514,1.535 0.248,1.535 c -0.266,0 -0.526,0.002 -0.78,0.006 -0.253,0.008 -0.513,0.016 -0.779,0.024 0.02,-0.081 0.03,-0.143 0.03,-0.187 0,-0.057 -0.01,-0.121 -0.03,-0.194 0.084,0.012 0.179,0.022 0.284,0.031 0.109,0.007 0.219,0.014 0.332,0.018 0.117,0.008 0.232,0.012 0.345,0.012 0.116,0.004 0.227,0.006 0.332,0.006 C -0.006,0.836 0,0.419 0,0"
               style="fill:#fff;fill-opacity:1;fill-rule:nonzero;stroke:none"
               id="path3399"
               inkscape:connector-curvature="0" /></g><g
             id="g3401"
             transform="translate(781.8549,526.5204)"
             style="fill:#fff;fill-opacity:1"><path
               d="m 0,0 c 0,-0.326 -0.002,-0.638 -0.006,-0.936 -0.004,-0.299 -0.018,-0.552 -0.042,-0.762 0.092,0.009 0.191,0.012 0.296,0.012 0.104,0 0.203,-0.003 0.296,-0.012 -0.008,0.085 -0.016,0.196 -0.024,0.333 -0.004,0.141 -0.009,0.292 -0.013,0.453 -0.004,0.165 -0.008,0.332 -0.012,0.501 l 0,0.478 C 0.56,0.191 0.636,0.33 0.725,0.483 0.814,0.641 0.916,0.816 1.033,1.009 1.15,1.202 1.285,1.418 1.438,1.656 1.591,1.893 1.764,2.159 1.957,2.453 1.857,2.433 1.778,2.423 1.722,2.423 1.665,2.423 1.587,2.433 1.486,2.453 1.406,2.28 1.319,2.101 1.226,1.915 1.134,1.734 1.037,1.553 0.937,1.372 0.836,1.19 0.735,1.013 0.634,0.84 0.534,0.667 0.437,0.508 0.344,0.363 0.135,0.729 -0.065,1.082 -0.254,1.42 -0.439,1.758 -0.622,2.103 -0.804,2.453 -0.86,2.445 -0.916,2.437 -0.973,2.429 -1.025,2.425 -1.08,2.423 -1.136,2.423 c -0.056,0 -0.113,0.002 -0.169,0.006 -0.052,0.008 -0.107,0.016 -0.163,0.024 0.04,-0.064 0.098,-0.161 0.175,-0.29 C -1.217,2.038 -1.132,1.895 -1.039,1.734 -0.943,1.577 -0.842,1.41 -0.737,1.233 -0.632,1.059 -0.534,0.892 -0.441,0.731 -0.345,0.574 -0.258,0.429 -0.181,0.296 -0.101,0.167 -0.04,0.068 0,0"
               style="fill:#fff;fill-opacity:1;fill-rule:nonzero;stroke:none"
               id="path3403"
               inkscape:connector-curvature="0" /></g><g
             id="g3405"
             transform="translate(790.0779,525.0704)"
             style="fill:#fff;fill-opacity:1"><path
               d="M 0,0 0.054,0.357 0.03,0.381 C -0.026,0.336 -0.097,0.284 -0.181,0.224 -0.262,0.167 -0.354,0.113 -0.459,0.061 -0.56,0.012 -0.673,-0.03 -0.798,-0.066 c -0.12,-0.037 -0.253,-0.055 -0.398,-0.055 -0.238,0 -0.46,0.038 -0.665,0.115 -0.201,0.076 -0.379,0.193 -0.532,0.35 -0.149,0.162 -0.265,0.363 -0.35,0.605 -0.085,0.245 -0.127,0.535 -0.127,0.87 0,0.334 0.042,0.622 0.127,0.864 0.085,0.245 0.201,0.447 0.35,0.604 0.153,0.161 0.331,0.28 0.532,0.356 0.205,0.077 0.427,0.115 0.665,0.115 0.145,0 0.278,-0.02 0.398,-0.06 0.121,-0.037 0.23,-0.083 0.327,-0.139 0.097,-0.057 0.181,-0.115 0.253,-0.176 0.073,-0.06 0.129,-0.114 0.17,-0.163 l 0.036,0.012 C 0,3.297 0.016,3.378 0.036,3.474 0.056,3.571 0.083,3.647 0.115,3.704 -0.054,3.78 -0.25,3.845 -0.471,3.897 -0.689,3.953 -0.93,3.982 -1.196,3.982 -1.531,3.982 -1.837,3.933 -2.115,3.837 -2.393,3.74 -2.632,3.599 -2.834,3.414 -3.031,3.228 -3.186,3.001 -3.299,2.731 -3.408,2.465 -3.462,2.161 -3.462,1.819 c 0,-0.343 0.054,-0.649 0.163,-0.919 0.113,-0.265 0.266,-0.491 0.459,-0.676 0.198,-0.186 0.431,-0.325 0.701,-0.417 0.27,-0.089 0.564,-0.133 0.882,-0.133 0.149,0 0.292,0.012 0.429,0.036 0.137,0.024 0.26,0.051 0.369,0.079 0.113,0.032 0.207,0.066 0.284,0.102 C -0.095,-0.068 -0.036,-0.032 0,0"
               style="fill:#fff;fill-opacity:1;fill-rule:nonzero;stroke:none"
               id="path3407"
               inkscape:connector-curvature="0" /></g><g
             id="g3409"
             transform="translate(795.0021,526.889)"
             style="fill:#fff;fill-opacity:1"><path
               d="m 0,0 c 0,-0.334 -0.042,-0.624 -0.127,-0.87 -0.084,-0.242 -0.203,-0.443 -0.356,-0.604 -0.149,-0.157 -0.327,-0.274 -0.532,-0.351 -0.201,-0.076 -0.421,-0.114 -0.659,-0.114 -0.233,0 -0.453,0.038 -0.658,0.114 -0.202,0.077 -0.379,0.194 -0.532,0.351 -0.149,0.161 -0.266,0.362 -0.35,0.604 -0.085,0.246 -0.127,0.536 -0.127,0.87 0,0.334 0.042,0.622 0.127,0.864 0.084,0.246 0.201,0.447 0.35,0.604 0.153,0.161 0.33,0.28 0.532,0.357 0.205,0.076 0.425,0.114 0.658,0.114 0.238,0 0.458,-0.038 0.659,-0.114 C -0.81,1.748 -0.632,1.629 -0.483,1.468 -0.33,1.311 -0.211,1.11 -0.127,0.864 -0.042,0.622 0,0.334 0,0 m -3.933,0 c 0,-0.342 0.054,-0.648 0.163,-0.918 0.113,-0.266 0.268,-0.492 0.465,-0.677 0.201,-0.185 0.441,-0.324 0.719,-0.417 0.278,-0.089 0.582,-0.133 0.912,-0.133 0.335,0 0.641,0.044 0.919,0.133 0.278,0.093 0.515,0.232 0.713,0.417 0.201,0.185 0.356,0.411 0.465,0.677 0.113,0.27 0.169,0.576 0.169,0.918 0,0.342 -0.056,0.646 -0.169,0.912 C 0.314,1.182 0.159,1.41 -0.042,1.595 -0.24,1.78 -0.477,1.921 -0.755,2.018 -1.033,2.115 -1.339,2.163 -1.674,2.163 -2.004,2.163 -2.308,2.115 -2.586,2.018 -2.864,1.921 -3.104,1.78 -3.305,1.595 -3.502,1.41 -3.657,1.182 -3.77,0.912 -3.879,0.646 -3.933,0.342 -3.933,0"
               style="fill:#fff;fill-opacity:1;fill-rule:evenodd;stroke:none"
               id="path3411"
               inkscape:connector-curvature="0" /></g><g
             id="g3413"
             transform="translate(800.0109,527.0097)"
             style="fill:#fff;fill-opacity:1"><path
               d="M 0,0 C 0,-0.125 -0.002,-0.262 -0.006,-0.411 -0.01,-0.56 -0.024,-0.709 -0.048,-0.858 -0.073,-1.007 -0.113,-1.15 -0.169,-1.287 -0.221,-1.424 -0.296,-1.545 -0.393,-1.649 -0.489,-1.754 -0.614,-1.839 -0.767,-1.903 -0.916,-1.967 -1.102,-2 -1.323,-2 c -0.226,0 -0.415,0.026 -0.568,0.079 -0.153,0.056 -0.28,0.131 -0.381,0.223 -0.1,0.097 -0.179,0.208 -0.235,0.333 -0.053,0.128 -0.091,0.261 -0.115,0.398 -0.024,0.141 -0.038,0.284 -0.042,0.43 -0.005,0.148 -0.007,0.291 -0.007,0.428 0,0.226 0.002,0.443 0.007,0.653 0.004,0.209 0.01,0.405 0.018,0.586 0.008,0.181 0.016,0.342 0.024,0.483 0.008,0.145 0.016,0.262 0.024,0.351 C -2.642,1.956 -2.687,1.948 -2.731,1.94 -2.771,1.936 -2.814,1.934 -2.858,1.934 c -0.048,0 -0.101,0.002 -0.157,0.006 -0.056,0.008 -0.109,0.016 -0.157,0.024 0.008,-0.181 0.016,-0.403 0.024,-0.665 0.008,-0.262 0.012,-0.562 0.012,-0.9 0,-0.153 -0.006,-0.304 -0.018,-0.453 -0.008,-0.145 -0.012,-0.312 -0.012,-0.502 0,-0.592 0.137,-1.025 0.411,-1.299 0.274,-0.274 0.713,-0.411 1.317,-0.411 0.274,0 0.516,0.039 0.725,0.115 0.213,0.077 0.393,0.19 0.538,0.339 0.145,0.148 0.256,0.33 0.332,0.543 0.081,0.214 0.123,0.456 0.127,0.725 0.004,0.222 0.01,0.45 0.018,0.683 C 0.31,0.377 0.318,0.606 0.326,0.828 0.334,1.054 0.344,1.263 0.356,1.456 0.369,1.654 0.381,1.823 0.393,1.964 0.324,1.943 0.264,1.934 0.211,1.934 0.171,1.934 0.131,1.936 0.091,1.94 0.05,1.948 0.008,1.956 -0.036,1.964 -0.02,1.847 -0.01,1.634 -0.006,1.323 -0.002,1.013 0,0.572 0,0"
               style="fill:#fff;fill-opacity:1;fill-rule:nonzero;stroke:none"
               id="path3415"
               inkscape:connector-curvature="0" /></g><g
             id="g3417"
             transform="translate(805.3883,524.7441)"
             style="fill:#fff;fill-opacity:1"><path
               d="m 0,0 0.084,0 0,0.199 c 0,0.097 -0.001,0.21 -0.006,0.339 0,0.133 -0.002,0.274 -0.006,0.423 0,0.153 -0.002,0.304 -0.006,0.453 l 0,0.429 0,0.362 c 0,0.117 0.004,0.272 0.012,0.465 0.009,0.194 0.017,0.391 0.025,0.593 0.012,0.201 0.022,0.39 0.03,0.568 0.012,0.177 0.022,0.31 0.03,0.398 -0.08,-0.02 -0.145,-0.03 -0.193,-0.03 -0.057,0 -0.125,0.01 -0.206,0.03 0.02,-0.354 0.033,-0.733 0.037,-1.136 0.008,-0.398 0.012,-0.809 0.012,-1.232 l 0,-0.822 C -0.373,1.225 -0.59,1.448 -0.84,1.71 c -0.246,0.266 -0.507,0.546 -0.785,0.84 -0.274,0.298 -0.552,0.598 -0.834,0.9 -0.278,0.306 -0.54,0.592 -0.786,0.858 l -0.096,0 C -3.333,4.171 -3.329,3.964 -3.329,3.686 -3.325,3.408 -3.323,3.075 -3.323,2.689 -3.323,2.556 -3.325,2.405 -3.329,2.236 -3.333,2.066 -3.339,1.893 -3.347,1.716 -3.351,1.539 -3.359,1.362 -3.371,1.184 -3.38,1.007 -3.388,0.842 -3.396,0.689 -3.404,0.54 -3.414,0.411 -3.426,0.302 -3.434,0.193 -3.442,0.119 -3.45,0.079 c 0.068,0.008 0.143,0.012 0.224,0.012 0.076,0 0.146,-0.004 0.211,-0.012 -0.004,0.032 -0.008,0.092 -0.012,0.181 -0.004,0.092 -0.008,0.199 -0.012,0.32 -0.004,0.121 -0.008,0.252 -0.012,0.393 -0.004,0.141 -0.008,0.28 -0.012,0.417 0,0.136 -0.002,0.267 -0.006,0.393 l 0,0.314 c 0,0.326 0.002,0.584 0.006,0.773 0.004,0.189 0.008,0.34 0.012,0.453 C -2.528,2.767 -2.004,2.207 -1.48,1.643 -0.957,1.083 -0.463,0.536 0,0"
               style="fill:#fff;fill-opacity:1;fill-rule:nonzero;stroke:none"
               id="path3419"
               inkscape:connector-curvature="0" /></g><g
             id="g3421"
             transform="translate(810.2338,525.0704)"
             style="fill:#fff;fill-opacity:1"><path
               d="M 0,0 0.055,0.357 0.03,0.381 C -0.026,0.336 -0.097,0.284 -0.181,0.224 -0.262,0.167 -0.354,0.113 -0.459,0.061 -0.56,0.012 -0.673,-0.03 -0.797,-0.066 c -0.121,-0.037 -0.254,-0.055 -0.399,-0.055 -0.238,0 -0.459,0.038 -0.665,0.115 -0.201,0.076 -0.379,0.193 -0.532,0.35 -0.149,0.162 -0.265,0.363 -0.35,0.605 -0.085,0.245 -0.127,0.535 -0.127,0.87 0,0.334 0.042,0.622 0.127,0.864 0.085,0.245 0.201,0.447 0.35,0.604 0.153,0.161 0.331,0.28 0.532,0.356 0.206,0.077 0.427,0.115 0.665,0.115 0.145,0 0.278,-0.02 0.399,-0.06 0.12,-0.037 0.229,-0.083 0.326,-0.139 0.097,-0.057 0.181,-0.115 0.254,-0.176 0.072,-0.06 0.128,-0.114 0.169,-0.163 l 0.036,0.012 C 0,3.297 0.016,3.378 0.036,3.474 0.056,3.571 0.083,3.647 0.115,3.704 -0.054,3.78 -0.25,3.845 -0.471,3.897 -0.689,3.953 -0.93,3.982 -1.196,3.982 -1.53,3.982 -1.837,3.933 -2.115,3.837 -2.393,3.74 -2.632,3.599 -2.834,3.414 -3.031,3.228 -3.186,3.001 -3.299,2.731 -3.408,2.465 -3.462,2.161 -3.462,1.819 c 0,-0.343 0.054,-0.649 0.163,-0.919 0.113,-0.265 0.266,-0.491 0.459,-0.676 0.198,-0.186 0.431,-0.325 0.701,-0.417 0.27,-0.089 0.564,-0.133 0.882,-0.133 0.149,0 0.292,0.012 0.429,0.036 0.137,0.024 0.26,0.051 0.369,0.079 0.113,0.032 0.207,0.066 0.284,0.102 C -0.095,-0.068 -0.036,-0.032 0,0"
               style="fill:#fff;fill-opacity:1;fill-rule:nonzero;stroke:none"
               id="path3423"
               inkscape:connector-curvature="0" /></g><g
             id="g3425"
             transform="translate(811.563,527.4086)"
             style="fill:#fff;fill-opacity:1"><path
               d="m 0,0 0,-1.039 c 0,-0.266 -0.006,-0.528 -0.018,-0.786 -0.008,-0.257 -0.018,-0.511 -0.03,-0.761 0.092,0.008 0.191,0.012 0.296,0.012 0.105,0 0.203,-0.004 0.296,-0.012 -0.012,0.25 -0.024,0.504 -0.036,0.761 -0.008,0.258 -0.012,0.52 -0.012,0.786 L 0.496,0 C 0.496,0.266 0.5,0.526 0.508,0.779 0.52,1.037 0.532,1.299 0.544,1.565 0.492,1.557 0.441,1.549 0.393,1.541 0.344,1.537 0.296,1.535 0.248,1.535 0.2,1.535 0.151,1.537 0.103,1.541 0.054,1.549 0.004,1.557 -0.048,1.565 -0.036,1.299 -0.026,1.037 -0.018,0.779 -0.006,0.526 0,0.266 0,0"
               style="fill:#fff;fill-opacity:1;fill-rule:nonzero;stroke:none"
               id="path3427"
               inkscape:connector-curvature="0" /></g><g
             id="g3429"
             transform="translate(813.6658,527.4086)"
             style="fill:#fff;fill-opacity:1"><path
               d="m 0,0 0,-1.039 c 0,-0.266 -0.006,-0.528 -0.018,-0.786 -0.008,-0.257 -0.018,-0.511 -0.03,-0.761 0.193,0.008 0.378,0.012 0.556,0.012 l 0.561,0 0.556,0 c 0.185,0 0.371,-0.004 0.556,-0.012 -0.02,0.064 -0.03,0.119 -0.03,0.163 0,0.049 0.01,0.109 0.03,0.181 C 1.879,-2.282 1.597,-2.306 1.335,-2.314 1.073,-2.318 0.8,-2.32 0.514,-2.32 0.509,-2.026 0.506,-1.694 0.501,-1.323 0.498,-0.948 0.495,-0.508 0.495,0 0.495,0.266 0.5,0.526 0.508,0.779 0.52,1.037 0.532,1.299 0.544,1.565 0.491,1.557 0.441,1.549 0.393,1.541 0.344,1.537 0.296,1.535 0.248,1.535 0.2,1.535 0.151,1.537 0.103,1.541 0.054,1.549 0.004,1.557 -0.048,1.565 -0.036,1.299 -0.026,1.037 -0.018,0.779 -0.006,0.526 0,0.266 0,0"
               style="fill:#fff;fill-opacity:1;fill-rule:nonzero;stroke:none"
               id="path3431"
               inkscape:connector-curvature="0" /></g><g
             id="g3433"
             transform="translate(757.857,540.2946)"
             style="fill:#fff;fill-opacity:1"><path
               d="M 0,0 0.242,0 C 0.35,0.355 0.436,0.646 0.501,0.872 0.576,1.109 0.662,1.352 0.76,1.599 0.447,1.847 0.07,2.041 -0.372,2.181 c -0.43,0.14 -0.937,0.21 -1.518,0.21 -0.485,0 -0.948,-0.075 -1.389,-0.226 C -3.71,2.014 -4.093,1.793 -4.427,1.503 -4.76,1.212 -5.03,0.851 -5.234,0.42 c -0.194,-0.431 -0.291,-0.926 -0.291,-1.486 0,-0.614 0.118,-1.12 0.355,-1.519 0.237,-0.387 0.533,-0.716 0.889,-0.985 0.355,-0.269 0.743,-0.501 1.163,-0.695 0.42,-0.183 0.808,-0.377 1.163,-0.582 0.356,-0.194 0.652,-0.42 0.889,-0.678 0.237,-0.259 0.355,-0.592 0.355,-1.002 0,-0.452 -0.156,-0.84 -0.468,-1.163 -0.302,-0.323 -0.776,-0.485 -1.422,-0.485 -0.323,0 -0.614,0.043 -0.872,0.13 -0.259,0.097 -0.48,0.226 -0.663,0.387 -0.183,0.162 -0.334,0.345 -0.452,0.55 -0.118,0.215 -0.199,0.441 -0.242,0.678 l -0.307,0 c -0.054,-0.366 -0.119,-0.705 -0.194,-1.018 -0.076,-0.312 -0.167,-0.657 -0.275,-1.034 0.237,-0.183 0.582,-0.334 1.034,-0.452 0.463,-0.129 0.985,-0.194 1.567,-0.194 0.646,0 1.228,0.081 1.745,0.243 0.528,0.172 0.98,0.414 1.357,0.727 0.377,0.323 0.668,0.705 0.872,1.147 0.205,0.452 0.307,0.947 0.307,1.486 0,0.614 -0.124,1.115 -0.371,1.502 C 0.668,-3.624 0.366,-3.29 0,-3.021 c -0.366,0.28 -0.759,0.511 -1.179,0.695 -0.42,0.194 -0.813,0.393 -1.18,0.597 -0.366,0.205 -0.673,0.431 -0.92,0.679 -0.238,0.258 -0.356,0.587 -0.356,0.985 0,0.388 0.156,0.727 0.468,1.018 0.313,0.291 0.717,0.436 1.212,0.436 C -0.996,1.389 -0.345,0.926 0,0"
               style="fill:#fff;fill-opacity:1;fill-rule:nonzero;stroke:none"
               id="path3435"
               inkscape:connector-curvature="0" /></g><g
             id="g3437"
             transform="translate(768.1968,531.1669)"
             style="fill:#fff;fill-opacity:1"><path
               d="m 0,0 c 1.562,0 2.746,0.404 3.554,1.212 0.808,0.818 1.212,2.164 1.212,4.038 0,0.701 0.005,1.363 0.016,1.988 0.022,0.635 0.043,1.211 0.064,1.728 0.022,0.528 0.044,0.991 0.065,1.39 0.022,0.398 0.043,0.716 0.065,0.953 C 4.836,11.287 4.701,11.266 4.572,11.244 4.443,11.233 4.308,11.228 4.168,11.228 4.049,11.228 3.92,11.233 3.78,11.244 3.64,11.266 3.495,11.287 3.344,11.309 3.387,10.565 3.419,9.822 3.441,9.079 3.463,8.347 3.473,7.609 3.473,6.866 3.473,6.112 3.452,5.385 3.409,4.685 3.366,3.996 3.247,3.382 3.053,2.843 2.87,2.305 2.596,1.874 2.229,1.551 1.863,1.228 1.357,1.066 0.711,1.066 c -0.528,0 -0.991,0.054 -1.39,0.162 -0.398,0.107 -0.737,0.323 -1.018,0.646 -0.269,0.334 -0.473,0.802 -0.613,1.405 -0.14,0.603 -0.21,1.395 -0.21,2.375 0,0.926 0.01,1.837 0.032,2.731 0.022,0.904 0.086,1.879 0.194,2.924 -0.216,-0.022 -0.436,-0.043 -0.662,-0.065 -0.227,-0.011 -0.448,-0.016 -0.663,-0.016 -0.215,0 -0.436,0.005 -0.662,0.016 -0.227,0.022 -0.447,0.043 -0.663,0.065 0.022,-0.27 0.038,-0.674 0.049,-1.212 0.011,-0.539 0.016,-1.244 0.016,-2.116 0,-0.291 -0.005,-0.571 -0.016,-0.84 l 0,-0.84 c 0,-0.291 -0.006,-0.609 -0.016,-0.954 l 0,-1.147 c 0,-0.764 0.123,-1.416 0.371,-1.955 C -4.281,1.718 -3.931,1.282 -3.49,0.937 -3.048,0.603 -2.531,0.366 -1.939,0.226 -1.336,0.075 -0.69,0 0,0"
               style="fill:#fff;fill-opacity:1;fill-rule:nonzero;stroke:none"
               id="path3439"
               inkscape:connector-curvature="0" /></g><g
             id="g3441"
             transform="translate(780.4749,536.4657)"
             style="fill:#fff;fill-opacity:1"><path
               d="m 0,0 2.892,-5.089 c 0.248,0.022 0.49,0.032 0.727,0.032 l 0.743,0 0.727,0 c 0.237,0 0.479,-0.01 0.727,-0.032 -0.592,0.894 -1.185,1.793 -1.777,2.698 -0.592,0.916 -1.147,1.831 -1.664,2.747 0.808,0.204 1.427,0.554 1.858,1.05 0.431,0.495 0.646,1.136 0.646,1.922 0,0.485 -0.097,0.9 -0.291,1.244 C 4.405,4.928 4.152,5.224 3.829,5.461 3.689,5.558 3.538,5.638 3.377,5.703 3.226,5.778 3.043,5.838 2.827,5.881 2.623,5.924 2.375,5.956 2.084,5.978 1.793,5.999 1.443,6.01 1.034,6.01 0.485,6.01 0.022,5.994 -0.355,5.961 -0.721,5.94 -1.05,5.929 -1.341,5.929 c -0.269,0 -0.511,0.006 -0.727,0.016 -0.215,0.022 -0.414,0.043 -0.598,0.065 0.044,-0.7 0.076,-1.4 0.097,-2.1 0.022,-0.69 0.033,-1.481 0.033,-2.375 l 0,-2.197 c 0,-0.894 -0.011,-1.691 -0.033,-2.391 -0.021,-0.69 -0.053,-1.368 -0.097,-2.036 0.184,0.022 0.383,0.032 0.598,0.032 l 0.727,0 0.727,0 c 0.216,0 0.415,-0.01 0.598,-0.032 -0.043,0.668 -0.075,1.346 -0.097,2.036 -0.022,0.7 -0.032,1.497 -0.032,2.391 L -0.145,0 0,0 z M 2.407,2.973 C 2.407,2.197 2.219,1.616 1.842,1.228 1.465,0.851 0.921,0.662 0.21,0.662 l -0.178,0 c -0.053,0.011 -0.113,0.022 -0.177,0.033 0,1.464 0.016,2.929 0.048,4.394 0.442,0 0.819,-0.021 1.131,-0.065 C 1.357,4.981 1.616,4.884 1.809,4.734 2.014,4.594 2.165,4.384 2.262,4.104 2.359,3.823 2.407,3.447 2.407,2.973"
               style="fill:#fff;fill-opacity:1;fill-rule:evenodd;stroke:none"
               id="path3443"
               inkscape:connector-curvature="0" /></g><g
             id="g3445"
             transform="translate(792.4462,536.4657)"
             style="fill:#fff;fill-opacity:1"><path
               d="m 0,0 2.892,-5.089 c 0.248,0.022 0.49,0.032 0.727,0.032 l 0.743,0 0.727,0 c 0.237,0 0.479,-0.01 0.727,-0.032 -0.592,0.894 -1.185,1.793 -1.777,2.698 -0.592,0.916 -1.147,1.831 -1.664,2.747 0.808,0.204 1.427,0.554 1.858,1.05 0.43,0.495 0.646,1.136 0.646,1.922 0,0.485 -0.097,0.9 -0.291,1.244 C 4.405,4.928 4.152,5.224 3.829,5.461 3.689,5.558 3.538,5.638 3.377,5.703 3.226,5.778 3.043,5.838 2.827,5.881 2.623,5.924 2.375,5.956 2.084,5.978 1.793,5.999 1.443,6.01 1.034,6.01 0.485,6.01 0.022,5.994 -0.355,5.961 -0.722,5.94 -1.05,5.929 -1.341,5.929 c -0.269,0 -0.511,0.006 -0.727,0.016 -0.215,0.022 -0.414,0.043 -0.598,0.065 0.044,-0.7 0.076,-1.4 0.097,-2.1 0.022,-0.69 0.033,-1.481 0.033,-2.375 l 0,-2.197 c 0,-0.894 -0.011,-1.691 -0.033,-2.391 -0.021,-0.69 -0.053,-1.368 -0.097,-2.036 0.184,0.022 0.383,0.032 0.598,0.032 l 0.727,0 0.727,0 c 0.216,0 0.415,-0.01 0.598,-0.032 -0.043,0.668 -0.076,1.346 -0.097,2.036 -0.022,0.7 -0.032,1.497 -0.032,2.391 L -0.145,0 0,0 z M 2.407,2.973 C 2.407,2.197 2.219,1.616 1.842,1.228 1.465,0.851 0.921,0.662 0.21,0.662 l -0.178,0 c -0.054,0.011 -0.113,0.022 -0.177,0.033 0,1.464 0.016,2.929 0.048,4.394 0.442,0 0.819,-0.021 1.131,-0.065 C 1.357,4.981 1.616,4.884 1.809,4.734 2.014,4.594 2.165,4.384 2.262,4.104 2.359,3.823 2.407,3.447 2.407,2.973"
               style="fill:#fff;fill-opacity:1;fill-rule:evenodd;stroke:none"
               id="path3447"
               inkscape:connector-curvature="0" /></g><g
             id="g3449"
             transform="translate(801.7357,538.0005)"
             style="fill:#fff;fill-opacity:1"><path
               d="m 0,0 0,-2.197 c 0,-0.894 -0.011,-1.691 -0.032,-2.391 -0.022,-0.69 -0.054,-1.368 -0.097,-2.036 0.086,0.011 0.188,0.022 0.307,0.033 l 0.549,0 0.969,0 1.6,0 1.745,0 c 0.43,-0.011 0.791,-0.022 1.082,-0.033 -0.022,0.065 -0.038,0.146 -0.049,0.242 -0.01,0.098 -0.016,0.232 -0.016,0.404 0,0.173 0.006,0.307 0.016,0.404 0.011,0.097 0.027,0.205 0.049,0.324 C 5.498,-5.326 4.879,-5.38 4.265,-5.412 3.651,-5.444 3.037,-5.461 2.423,-5.461 c -0.032,0.647 -0.048,1.32 -0.048,2.02 l 0,1.034 c 0.011,0.344 0.016,0.689 0.016,1.034 1.217,0 2.44,-0.049 3.667,-0.145 -0.021,0.172 -0.043,0.301 -0.064,0.387 -0.011,0.097 -0.016,0.189 -0.016,0.275 0,0.108 0.005,0.21 0.016,0.307 0.011,0.097 0.032,0.237 0.064,0.42 C 5.444,-0.161 4.852,-0.188 4.281,-0.21 3.721,-0.232 3.091,-0.248 2.391,-0.258 l 0,1.761 C 2.402,2.084 2.429,2.671 2.472,3.263 2.59,3.263 2.789,3.258 3.07,3.247 3.35,3.237 3.662,3.22 4.007,3.199 4.362,3.177 4.723,3.156 5.089,3.134 5.466,3.113 5.81,3.091 6.123,3.07 6.101,3.188 6.085,3.296 6.074,3.393 6.064,3.49 6.058,3.624 6.058,3.797 6.058,4.077 6.08,4.303 6.123,4.475 5.908,4.454 5.487,4.432 4.863,4.411 4.249,4.4 3.544,4.394 2.747,4.394 2.262,4.394 1.782,4.405 1.309,4.427 0.835,4.448 0.355,4.464 -0.129,4.475 c 0.043,-0.7 0.075,-1.4 0.097,-2.1 C -0.011,1.686 0,0.894 0,0"
               style="fill:#fff;fill-opacity:1;fill-rule:nonzero;stroke:none"
               id="path3451"
               inkscape:connector-curvature="0" /></g><g
             id="g3453"
             transform="translate(816.3243,537.629)"
             style="fill:#fff;fill-opacity:1"><path
               d="M 0,0 -0.032,0 C -0.151,0.183 -0.307,0.463 -0.501,0.84 -0.695,1.217 -0.905,1.637 -1.131,2.1 -1.357,2.563 -1.589,3.037 -1.826,3.522 -2.052,4.007 -2.256,4.448 -2.44,4.847 -2.687,4.825 -2.93,4.803 -3.167,4.782 -3.393,4.771 -3.63,4.766 -3.877,4.766 c -0.248,0 -0.491,0.005 -0.727,0.016 -0.237,0.021 -0.48,0.043 -0.727,0.065 0.129,-0.227 0.328,-0.593 0.597,-1.099 0.28,-0.506 0.582,-1.072 0.905,-1.696 0.334,-0.625 0.673,-1.271 1.018,-1.939 0.355,-0.657 0.668,-1.255 0.937,-1.793 0.011,-0.248 0.016,-0.501 0.016,-0.76 0.011,-0.247 0.016,-0.495 0.016,-0.743 0,-0.517 -0.027,-1.034 -0.08,-1.551 -0.055,-0.517 -0.092,-1.023 -0.114,-1.518 0.227,0.021 0.453,0.032 0.679,0.032 l 0.695,0 0.678,0 c 0.237,0 0.469,-0.011 0.695,-0.032 -0.076,0.592 -0.124,1.157 -0.146,1.696 -0.01,0.538 -0.016,1.083 -0.016,1.632 0,0.269 0.006,0.533 0.016,0.791 0.011,0.269 0.017,0.534 0.017,0.792 0.258,0.506 0.543,1.055 0.856,1.648 0.323,0.603 0.641,1.19 0.953,1.761 0.312,0.571 0.603,1.098 0.872,1.583 0.28,0.496 0.512,0.894 0.695,1.196 C 3.818,4.825 3.683,4.803 3.554,4.782 3.436,4.771 3.312,4.766 3.183,4.766 3.053,4.766 2.924,4.771 2.795,4.782 2.676,4.803 2.558,4.825 2.44,4.847 2.256,4.448 2.068,4.028 1.874,3.587 1.68,3.156 1.481,2.725 1.276,2.294 1.072,1.863 0.862,1.448 0.646,1.05 0.431,0.662 0.216,0.312 0,0"
               style="fill:#fff;fill-opacity:1;fill-rule:nonzero;stroke:none"
               id="path3455"
               inkscape:connector-curvature="0" /></g><g
             id="g3457"
             transform="translate(795.4437,570.9859)"
             style="fill:#fff;fill-opacity:1"><path
               d="m 0,0 c -0.083,-1.159 -0.476,-4.1 -1.008,-5.708 -1.091,-3.27 -1.785,-4.955 -4.085,-7.609 2.342,4.596 2.848,5.685 3.718,9.955 0.708,3.473 -0.141,6.494 -1.217,8.097 -0.267,0.388 -0.821,1.117 -1.577,1.675 -0.774,0.475 -0.67,0.575 -1.871,0.952 -1.149,0.362 -1.617,0.32 -2.102,0.362 -0.546,0.041 -0.14,0.006 -1.042,0.058 l -1.26,-0.069 -0.962,-0.137 -1.191,-0.206 -1.42,-0.367 -1.717,-0.618 -1.599,-0.797 -1.402,-0.866 -1.566,-1.278 -1.402,-1.402 -0.948,-1.257 -0.784,-1.258 -0.618,-1.236 -0.536,-1.196 -0.453,-1.525 -0.33,-1.443 -0.165,-1.361 -0.02,-0.989 10e-4,-0.91 0.066,-1.028 0.12,-1.031 0.163,-0.906 0.242,-0.997 0.285,-0.897 0.394,-1.073 0.437,-0.92 0.613,-1.05 0.635,-0.92 0.898,-1.116 0.941,-0.985 0.996,-0.906 0.865,-0.649 0.755,-0.588 c 0.577,-0.371 0.177,-0.147 0.619,-0.383 0.223,-0.119 0.837,-0.495 1.025,-0.51 -0.059,0.206 -0.206,0.378 -0.412,0.927 -0.161,0.43 -0.138,0.516 -0.277,1.048 -0.599,3.14 -0.656,5.099 -0.105,8.432 0.21,1.274 1.165,4.384 2.036,5.987 0.702,1.291 1.273,2.666 1.866,3.746 -2.136,-2.952 -3.659,-4.525 -4.783,-8.226 -0.635,-2.088 -1.023,-3.367 -1.265,-5.597 -0.058,-0.536 0.243,-2.049 -1.07,-1.888 -0.6,0.073 -1.476,0.73 -2.329,2.219 -0.548,0.744 -0.964,2.003 -1.161,2.473 -0.24,0.653 -0.558,1.73 -0.624,2.157 -0.068,0.447 -0.295,1.149 -0.317,2.134 -0.005,0.933 1.124,2.494 2.484,0.157 0.977,-1.679 1.89,-0.749 1.687,0.98 -0.342,2.916 -2.139,3.998 -2.044,6.933 0.072,2.197 1.61,2.513 2.511,1.292 0.24,-0.325 1.123,-3.153 2.715,-1.812 1.638,1.38 0.7,3.727 0.834,5.698 0.067,0.987 0.439,2.216 1.484,2.308 0.568,0.051 0.728,0.005 1.031,-0.371 0.453,-0.866 -0.057,-2.267 0.494,-2.762 1.121,-1.007 1.652,0.391 3.063,2.53 1.456,2.207 5.2,1.737 6.673,-0.521 1.46,-2.25 0.069,-5.977 -2.609,-6.118 -0.992,-0.053 -2.972,-0.517 -2.579,-2.072 0.504,-2.034 2.055,-0.317 3.225,-1.643 0.755,-0.856 -0.049,-1.856 -1.012,-2.483 -1.396,-0.913 -2.473,-0.721 -4.075,-1.188 -0.962,-0.281 -2.675,-1.025 -2.178,-2.614 0.551,-1.763 3.304,-0.16 3.697,-1.715 0.707,-2.798 -4.823,-1.791 -5.835,-4.475 -0.977,-2.582 0.691,-5.819 3.46,-6.164 2.363,-0.298 3.651,1.109 5.082,2.855 0.361,0.44 0.87,1.637 1.361,1.483 0.539,-0.083 0.44,-0.597 0.515,-0.927 0.201,-0.879 -0.607,-1.873 0.55,-2.508 1.218,-0.669 2.68,0.652 2.972,2.39 0.236,1.399 -0.165,2.234 0.163,3.641 0.474,2.061 1.942,2.65 2.503,0.926 0.52,-1.603 1.937,-1.959 2.827,-0.764 0.48,0.645 0.879,2.293 0.365,3.707 -0.633,1.741 -1.485,2.5 -2.059,4.265 -0.184,0.568 -0.468,2.318 0.49,2.107 0.572,-0.125 1.946,-2.942 3.08,-0.984 0.558,0.965 -0.004,2.793 -0.55,4.037 C 4.807,-2.183 5.107,-2.737 4.455,-1.328 4.377,-1.16 3.939,-0.435 3.63,0.218 3.424,0.596 2.187,2.709 1.225,2.571 0.185,2.423 0.046,0.688 0,0"
               style="fill:#fff;fill-opacity:1;fill-rule:nonzero;stroke:none"
               id="path3459"
               inkscape:connector-curvature="0" /></g></g></g></g><g
       id="g3125"><g
         id="g3127"
         clip-path="url(#clipPath3129)"><g
           id="g3133"
           clip-path="url(#clipPath3135)"><text
             transform="matrix(1,0,0,-1,514.7567,20.5706)"
             id="text3139"><tspan
               style="font-size:6px;font-variant:normal;font-weight:normal;writing-mode:lr-tb;fill:#231f20;fill-opacity:1;fill-rule:nonzero;stroke:none;font-family:' Xenogears';-inkscape-font-specification:Helvetica"
               x="0 3.336 6.6719999 10.008 12.006 16.337999 20.34 24.341999 26.34 29.676001 33.012001 36.348 39.683998 43.02"
               y="0"
               sodipodi:role="line"
               id="tspan3141">780-CYP-220212</tspan></text>
</g></g></g></g></svg>